# xmcd CD database file
#
# Track frame offsets:
#	150
#	21402
#	40827
#	61046
#	77756
#	92407
#	112169
#	133191
#	150357
#	173577
#	198157
#	215765
#	239863
#
# Disc length: 3552 seconds
#
# Revision: 0
# Processed by: cddbd v1.4PL0 Copyright (c) Steve Scherf et al.
# Submitted via: CDex 1.50beta10
#
DISCID=ad0dde0d
DTITLE=Brian "the Saxman" Omundsen - In A Bar Somewhere
DYEAR=1998
DGENRE=Jazz
TTITLE0=Have I Told You Lately
TTITLE1=Fields Of Gold
TTITLE2=Take Five
TTITLE3=My Baby Just Cares
TTITLE4=Mama Don't Allow
TTITLE5=Brown Eyed Girl
TTITLE6=Drive
TTITLE7=Guilty
TTITLE8=The Girl From Ipanema
TTITLE9=Georgia On My Mind
TTITLE10=After Midnight
TTITLE11=You Can Leave Your Hat On
TTITLE12=Baker St.
EXTD=YEAR: 1998
EXTT0=
EXTT1=
EXTT2=
EXTT3=
EXTT4=
EXTT5=
EXTT6=
EXTT7=
EXTT8=
EXTT9=
EXTT10=
EXTT11=
EXTT12=
PLAYORDER=
